<?xml version="1.0" encoding="UTF-8" standalone="no"?>
<svg width="44px" height="49px" viewBox="0 0 44 49" version="1.1" xmlns="http://www.w3.org/2000/svg" xmlns:xlink="http://www.w3.org/1999/xlink" xmlns:sketch="http://www.bohemiancoding.com/sketch/ns">
    <!-- Generator: sketchtool 3.4 (381) - http://www.bohemiancoding.com/sketch -->
    <title>icon_hotel</title>
    <desc>Created with sketchtool.</desc>
    <defs></defs>
    <g id="Page-1" stroke="none" stroke-width="1" fill="none" fill-rule="evenodd" sketch:type="MSPage">
        <g id="Travel---Icons" sketch:type="MSArtboardGroup" transform="translate(-399.000000, -116.000000)">
            <g id="icon_hotel" sketch:type="MSLayerGroup" transform="translate(396.000000, 115.000000)">
                <rect id="Bounds" sketch:type="MSShapeGroup" x="0" y="0" width="50" height="50"></rect>
                <g id="Icon" transform="translate(3.125000, 1.041667)" fill="#000000" sketch:type="MSShapeGroup">
                    <rect id="Rectangle-path" x="0.104166667" y="37.6041667" width="43.5416667" height="2.08333333"></rect>
                    <path d="M39.6875,39.6875 L3.95833333,39.6875 L3.95833333,15.7291667 C3.95833333,8.95833333 9.47916667,3.4375 16.25,3.4375 L27.3958333,3.4375 C34.1666667,3.4375 39.6875,8.95833333 39.6875,15.7291667 L39.6875,39.6875 L39.6875,39.6875 Z M6.04166667,37.6041667 L37.6041667,37.6041667 L37.6041667,15.7291667 C37.6041667,10.1041667 33.0208333,5.52083333 27.3958333,5.52083333 L16.25,5.52083333 C10.625,5.52083333 6.04166667,10.1041667 6.04166667,15.7291667 L6.04166667,37.6041667 L6.04166667,37.6041667 Z" id="Shape"></path>
                    <g id="Group" transform="translate(6.250000, 39.583333)">
                        <path d="M4.79166667,9.375 C2.39583333,9.375 0.520833333,7.5 0.520833333,5.10416667 C0.520833333,2.70833333 2.39583333,0.833333333 4.79166667,0.833333333 C7.1875,0.833333333 9.0625,2.70833333 9.0625,5.10416667 C9.0625,7.5 7.1875,9.375 4.79166667,9.375 L4.79166667,9.375 Z M4.79166667,2.91666667 C3.54166667,2.91666667 2.60416667,3.85416667 2.60416667,5.10416667 C2.60416667,6.35416667 3.54166667,7.29166667 4.79166667,7.29166667 C6.04166667,7.29166667 6.97916667,6.35416667 6.97916667,5.10416667 C6.97916667,3.85416667 6.04166667,2.91666667 4.79166667,2.91666667 L4.79166667,2.91666667 Z" id="Shape"></path>
                        <path d="M26.4583333,9.375 C24.0625,9.375 22.1875,7.5 22.1875,5.10416667 C22.1875,2.70833333 24.0625,0.833333333 26.4583333,0.833333333 C28.8541667,0.833333333 30.7291667,2.70833333 30.7291667,5.10416667 C30.7291667,7.5 28.8541667,9.375 26.4583333,9.375 L26.4583333,9.375 Z M26.4583333,2.91666667 C25.2083333,2.91666667 24.2708333,3.85416667 24.2708333,5.10416667 C24.2708333,6.35416667 25.2083333,7.29166667 26.4583333,7.29166667 C27.7083333,7.29166667 28.6458333,6.35416667 28.6458333,5.10416667 C28.6458333,3.85416667 27.7083333,2.91666667 26.4583333,2.91666667 L26.4583333,2.91666667 Z" id="Shape"></path>
                    </g>
                    <path d="M30.7291667,36.4583333 L13.0208333,36.4583333 C10.8333333,36.4583333 9.0625,34.6875 9.0625,32.5 L9.0625,22.0833333 C9.0625,19.8958333 10.8333333,18.125 13.0208333,18.125 L30.7291667,18.125 C32.9166667,18.125 34.6875,19.8958333 34.6875,22.0833333 L34.6875,32.6041667 C34.6875,34.6875 32.9166667,36.4583333 30.7291667,36.4583333 L30.7291667,36.4583333 Z M13.0208333,20.2083333 C11.9791667,20.2083333 11.1458333,21.0416667 11.1458333,22.0833333 L11.1458333,32.5 C11.1458333,33.5416667 11.9791667,34.375 13.0208333,34.375 L30.7291667,34.375 C31.7708333,34.375 32.6041667,33.5416667 32.6041667,32.6041667 L32.6041667,22.0833333 C32.6041667,21.0416667 31.7708333,20.2083333 30.7291667,20.2083333 L13.0208333,20.2083333 L13.0208333,20.2083333 Z" id="Shape"></path>
                    <path d="M27.3958333,20.2083333 L16.3541667,20.2083333 L16.3541667,16.1458333 C16.3541667,14.375 17.8125,12.9166667 19.5833333,12.9166667 L24.1666667,12.9166667 C25.9375,12.9166667 27.3958333,14.375 27.3958333,16.1458333 L27.3958333,20.2083333 L27.3958333,20.2083333 Z M18.4375,18.125 L25.3125,18.125 L25.3125,16.1458333 C25.3125,15.5208333 24.7916667,15 24.1666667,15 L19.5833333,15 C18.9583333,15 18.4375,15.5208333 18.4375,16.1458333 L18.4375,18.125 L18.4375,18.125 Z" id="Shape"></path>
                    <rect id="Rectangle-path" x="20.8333333" y="0" width="2.08333333" height="9.79166667"></rect>
                </g>
            </g>
        </g>
    </g>
</svg>