<?xml version="1.0" encoding="UTF-8" standalone="no"?>
<svg width="33px" height="48px" viewBox="0 0 33 48" version="1.1" xmlns="http://www.w3.org/2000/svg" xmlns:xlink="http://www.w3.org/1999/xlink" xmlns:sketch="http://www.bohemiancoding.com/sketch/ns">
    <!-- Generator: sketchtool 3.4 (381) - http://www.bohemiancoding.com/sketch -->
    <title>icon_notes</title>
    <desc>Created with sketchtool.</desc>
    <defs></defs>
    <g id="Page-1" stroke="none" stroke-width="1" fill="none" fill-rule="evenodd" sketch:type="MSPage">
        <g id="Travel---Icons" sketch:type="MSArtboardGroup" transform="translate(-313.000000, -263.000000)">
            <g id="icon_notes" sketch:type="MSLayerGroup" transform="translate(303.000000, 262.000000)">
                <rect id="Bounds" sketch:type="MSShapeGroup" x="0" y="0" width="50" height="50"></rect>
                <path d="M42.0607726,12.261125 L42.0607726,12.261125 L42.0607726,12.0666045 C41.9959324,11.7424037 41.801412,11.5478833 41.5420514,11.3533628 C40.95849,10.7049613 39.661687,9.4081583 36.9384006,6.68487195 L32.0753893,1.8218606 C32.0105492,1.75702045 32.0105492,1.75702045 31.945709,1.6921803 C31.945709,1.6921803 31.945709,1.6921803 31.8808688,1.6921803 C31.8160287,1.6921803 31.8160287,1.62734015 31.7511885,1.62734015 L31.6863484,1.62734015 C31.6215082,1.62734015 31.6215082,1.62734015 31.5566681,1.5625 L31.3621476,1.5625 L11.9101023,1.5625 C11.3913811,1.5625 10.9375,2.01638106 10.9375,2.53510227 L10.9375,47.9232081 C10.9375,48.312249 11.1320205,48.6364498 11.5210614,48.8309703 C11.8452621,48.9606506 12.2991432,48.8958104 12.5585038,48.7012899 L14.8279091,46.6264051 L17.0973144,48.6364498 C17.4863553,48.9606506 18.0050765,48.9606506 18.3941174,48.6364498 L20.6635227,46.6264051 L22.932928,48.6364498 C23.3219689,48.9606506 23.8406901,48.9606506 24.229731,48.6364498 L26.4991363,46.6264051 L28.7685416,48.6364498 C29.1575825,48.9606506 29.6763037,48.9606506 30.0653446,48.6364498 L32.3347499,46.6264051 L34.6041552,48.6364498 C34.9931961,48.9606506 35.5119173,48.9606506 35.9009582,48.6364498 L38.1703635,46.6264051 L40.4397688,48.6364498 C40.6342893,48.7661301 40.8288097,48.8958104 41.0881703,48.8958104 C41.2178506,48.8958104 41.3475309,48.8958104 41.4772112,48.8309703 C41.801412,48.7012899 42.0607726,48.312249 42.0607726,47.9232081 L42.0607726,12.261125 L42.0607726,12.261125 L42.0607726,12.261125 L42.0607726,12.261125 Z M38.7539249,11.2885227 L32.3347499,11.2885227 L32.3347499,4.86934771 C34.1502741,6.68487195 36.9384006,9.47299845 38.7539249,11.2885227 L38.7539249,11.2885227 Z M38.818765,44.6163604 C38.4297241,44.2921597 37.9110029,44.2921597 37.521962,44.6163604 L35.2525567,46.6264051 L32.9831514,44.6163604 C32.5941105,44.2921597 32.0753893,44.2921597 31.6863484,44.6163604 L29.4169431,46.6264051 L27.1475378,44.6163604 C26.7584969,44.2921597 26.2397757,44.2921597 25.8507348,44.6163604 L23.5813295,46.6264051 L21.3119242,44.6163604 C20.9228833,44.2921597 20.4041621,44.2921597 20.0151212,44.6163604 L17.7457159,46.6264051 L15.4763106,44.6163604 C15.2817901,44.42184 15.0872697,44.3569998 14.8279091,44.3569998 C14.5685485,44.3569998 14.374028,44.42184 14.1795076,44.6163604 L12.8827045,45.7834831 L12.8827045,3.50770454 L30.3895454,3.50770454 L30.3895454,12.261125 C30.3895454,12.7798462 30.8434264,13.2337272 31.3621476,13.2337272 L40.1155681,13.2337272 L40.1155681,45.7834831 L38.818765,44.6163604 L38.818765,44.6163604 Z M37.1977613,40.14239 C37.1977613,40.6611112 36.7438802,41.1149923 36.225159,41.1149923 L16.7731136,41.1149923 C16.2543924,41.1149923 15.8005113,40.6611112 15.8005113,40.14239 C15.8005113,39.6236688 16.2543924,39.1697877 16.7731136,39.1697877 L36.225159,39.1697877 C36.7438802,39.1697877 37.1977613,39.6236688 37.1977613,40.14239 L37.1977613,40.14239 Z M31.2476959,28.7953635 L17.2048008,28.7953635 C16.4558464,28.7953635 15.8005113,28.3414825 15.8005113,27.8227613 C15.8005113,27.30404 16.4558464,26.850159 17.2048008,26.850159 L31.2476959,26.850159 C31.9966503,26.850159 32.6519854,27.30404 32.6519854,27.8227613 C32.6519854,28.3414825 31.9966503,28.7953635 31.2476959,28.7953635 L31.2476959,28.7953635 Z M26.5667309,33.9825756 L17.2048008,33.9825756 C16.4558464,33.9825756 15.8005113,33.5286946 15.8005113,33.0099733 C15.8005113,32.4912521 16.4558464,32.0373711 17.2048008,32.0373711 L26.5667309,32.0373711 C27.3156853,32.0373711 27.9710204,32.4912521 27.9710204,33.0099733 C27.9710204,33.5286946 27.3156853,33.9825756 26.5667309,33.9825756 L26.5667309,33.9825756 Z M26.5667309,23.6081514 L17.2048008,23.6081514 C16.4558464,23.6081514 15.8005113,23.1542704 15.8005113,22.6355492 C15.8005113,22.1168279 16.4558464,21.6629469 17.2048008,21.6629469 L26.5667309,21.6629469 C27.3156853,21.6629469 27.9710204,22.1168279 27.9710204,22.6355492 C27.9710204,23.1542704 27.3156853,23.6081514 26.5667309,23.6081514 L26.5667309,23.6081514 Z M31.2476959,18.4209393 L17.2048008,18.4209393 C16.4558464,18.4209393 15.8005113,17.9670583 15.8005113,17.4483371 C15.8005113,16.9296158 16.4558464,16.4757348 17.2048008,16.4757348 L31.2476959,16.4757348 C31.9966503,16.4757348 32.6519854,16.9296158 32.6519854,17.4483371 C32.6519854,17.9670583 31.9966503,18.4209393 31.2476959,18.4209393 L31.2476959,18.4209393 Z" id="Shape" fill="#000000" sketch:type="MSShapeGroup"></path>
            </g>
        </g>
    </g>
</svg>