<svg version="1" xmlns="http://www.w3.org/2000/svg" width="800" height="800" viewBox="0 0 600.000000 600.000000"><path d="M139.5 14.4c-1 1.5-2.3 2.5-2.9 2.3-1.3-.4-2.9 1-4.3 3.8-1.7 3.4-1.6 12.2.3 17 1.3 3.7 1.5 5.1.6 7.1-1 2.1-1.5 2.3-3.1 1.4-2.2-1.1-7.7-1.2-10.5-.1-1 .4-2.4 1.8-3.1 3.2l-1.3 2.4-1-2.5c-.6-1.4-1.3-5.6-1.6-9.4-1-12.4-3.8-18-10.3-21.5-3.4-1.7-9.4-1.1-10.2 1.2-.4 1-1.8 2.4-3.1 3-3.7 1.8-5 5.4-4.5 11.9.7 8.4 4.1 14.6 10.2 18.5 1.4.9 1.1 1-1.8.2-5.5-1.4-9-.8-10 1.8-1.1 3-.4 9.6 1.5 14.8 1.9 5.1 1.7 5.8-1.7 6.1-4.3.3-9.9 3.2-12.5 6.5-3.1 3.8-2.2 7.9 2.3 12.1 3 2.7 3.2 3.2 2 4.5-2.2 2.1-1.8 4.8 1 7.4 1.3 1.3 2.5 3.2 2.5 4.2 0 4.6 5.9 11.9 12.5 15.4 4 2.2 12.1 2.5 16.5.7 3.1-1.4 4.3-1.3 12.8.7 8.9 2.1 9.4 2.4 10.8 5.7 1.3 3.3 6 8.2 7.7 8.2.4 0 .7.4.7.9 0 .6-1.2.6-3.1-.1-5-1.7-10.7-.4-14.6 3.4-6.2 5.9-10.7 19.2-8.2 24.1 2.1 4.1 10.1 9.3 15.5 10 2.7.3 2.8.6 2.6 4.4-.6 7.8 7.4 20.4 13.9 21.8 1.5.4 4.5.2 6.5-.4 2.1-.6 3.9-.9 4.1-.7.2.2-1.2 1.6-3.2 3.2-9.6 7.8-11.4 9.7-13.5 14.7-1.3 2.8-2.4 7.5-2.6 10.3-.3 5.8 1.8 8.9 8.5 12.4 9.6 4.8 21.6 3.9 25.6-1.9l1.9-2.9 1.3 3.6c.7 2.1 3.2 5.5 6 7.9 2.6 2.3 4.5 4.3 4.3 4.5-.3.2-3.1 1.6-6.3 3.2-6.2 3.1-9.7 6.7-9.7 9.8 0 2.2 6.1 8.8 10 10.9 1.4.7 7.9 1.6 14.5 2.1 6.6.4 12.9.9 14 1.2 1.1.2 2.5.5 3 .6.6 0-1.1 1-3.6 2.1-8 3.5-9.6 10.6-4.5 19.3 2.1 3.6 9.6 10.8 9.6 9.2 0-.3 1.5.1 3.3.8 1.7.8 4.1 1.2 5.2 1.1 1.1-.2 3.7-.6 5.7-.8 2.1-.3 5.4-1.4 7.4-2.6l3.7-2.2 2.9 3.5c2.2 2.6 4 3.8 6.9 4.2 4.5.8 4.5 1.3-.1 1.9-12.6 1.6-15.5 15.6-6.2 29.5 4.5 6.7 8.9 9.4 15.1 9.3 4.1-.1 4.4 0 2.6 1.3-1 .8-2.1 1.4-2.5 1.4-1.4 0-3.2 4.7-3.5 9.1-.4 7.8 2.7 15.4 7.6 18.3 5.8 3.4 14.1 1.5 23.5-5.6 3.6-2.8 6.9-7.7 6-9l3.9 3.9c2.9 3 5.1 4.3 7.1 4.4 8.7.5 13.8-.1 17.2-1.9 12.2-6.4 18-9.7 21-12 3.7-2.9 6.6-7.7 5.6-9.4-.4-.7-.3-.8.4-.4s1.2 1.2 1.2 1.7c0 1.7 4.3 5.7 7.3 6.8 1.6.6 4.6 1.1 6.8 1.1 6.2 0 11.7 3.6 13 8.5 1.7 6.1 3.8 16.8 4.4 21.7 1 9.4.3 35.7-1.1 37.9-.2.4-.7 2.9-1 5.6-.3 2.6-1.7 9.5-3.1 15.3-1.8 7.5-2.6 13.2-2.6 19.8 0 9.5-1.6 17.2-7.1 32.7-2.5 7-10.4 27-13 32.9-.8 1.7-3.6 8.5-6.1 15.1-4.8 11.9-4.8 12-3 15 1 1.6 3.1 5.4 4.6 8.3 6.7 12.5 9.8 14.5 12.2 7.8 2.7-7.2 10.7-35.2 12.2-42.5.2-.9 3.5-14.4 7.4-30.1 7.5-30 11.7-44.8 13.2-46.6 1-1.3 2.3-28.5 2.3-50.4 0-13.9-.8-29-2-39.5-.9-7.8-.8-8.5 1-8.5.7 0 2.2-1.7 3.1-3.7 1.5-3.1 1.6-4.4.7-7.8-.6-2.2-.9-4.1-.8-4.2.7-.7 8.7 8.2 12.7 14 2.4 3.5 5.8 7.3 7.4 8.4 3.6 2.3 11.3 4.5 14 3.9 1.1-.3 2.3-.5 2.6-.5 2.3-.3 3.3-12.5 1.5-18-.8-2.3-.8-2.3 4.5-1.5 6.6 1 21 1 26.3.1 7.8-1.4 24.6-8.2 24.6-9.9 0-.4.6-.8 1.3-.8 2.6 0 15.9-13.4 21-21.3 6.8-10.3 13-25.3 15.2-36.8 2.8-14.3 3.4-20.1 4-39.9.5-14.3 2.2-25.6 4.7-30.3 1-2 1.1-2-6.9-.3-3.4.7-6.4 1.1-6.7.9-.2-.3-3.7-.6-7.8-.9-4-.2-8.2-.5-9.3-.8-3.4-.6-14.8-1.9-17.9-1.9-2.8-.1-3.1-.5-6.2-9.6-4.1-12.2-11.4-26.2-22-42.2-8.7-13.2-13-21.2-14-26.7-.3-1.7-.8-3.2-1-3.2-.3 0-2.4 2-4.8 4.5-5.1 5.2-19.2 13.9-20.2 12.4-1.9-3.2-10.5-4.2-18.3-2.2-2.9.8-5.6 1.2-5.9.9-.3-.3.1-.6.9-.6 2 0 7.8-5.8 9.2-9 4-9.8-4.9-28.6-14.4-30.4-7.4-1.3-20.1 3.7-23 9.2-1.1 1.9-1.5 2-2.8.8-2.3-2-8.6-3.8-11.8-3.4-4 .5-9.2 3.5-13.6 7.7l-3.9 3.6 2.1-3.6c3.9-6.6 4.3-13.2 1.2-18.5l-2-3.4 2.9-5.4c3-5.7 3.2-9.6.7-14.4-.9-2-1.8-2.3-4.9-2-2.7.2-3.8 0-3.8-1 0-1.9-3-7.4-5.1-9.5-2.3-2.2-5.3-2.1-10.4.2-3.9 1.7-9.5 7.2-9.5 9.2 0 2.2-3.9.6-8.3-3.5-4.4-3.9-4.8-4.6-3.7-6.6 1.7-3.1 1-12-1.2-15.2-1-1.4-1.8-3-1.8-3.5 0-1.2-4.5-4.4-9.1-6.6-12.8-5.9-29.3.9-31.3 13-.1.7-.5 1.5-.7 1.8-1 .9 0 11.6 1.7 19.3.9 4.1 1.4 7.5 1.2 7.8-.5.4-7.8-9.2-7.8-10.4 0-.5-1.8-2.6-3.9-4.7-3.2-3.2-3.7-4.3-3-5.8 1.6-2.9-.7-12.4-4.4-17.7-3.8-5.7-7.1-7.5-13.2-7.3-4 .1-5.5-.3-5.5-1.2 0-.8.5-1.7 1.1-2.1.8-.4 1-2.9.6-7-.8-10.7-7.9-17.3-13.2-12.4l-2.2 2.1-3.8-2.5c-2.1-1.4-4.4-2.7-5.1-2.7-.8-.1-2-.2-2.6-.3-2.6-.4-5.4 1.6-7.5 5.3-2.8 4.9-3.7 10-2.5 14.5.6 2 .7 3.4.4 3.2-1.3-.8-9.5-1.9-14.6-2l-4.9-.1-.3-7.7c-.5-12.2-4.7-18.4-13.3-19.5-3.4-.5-4.1-.2-5.6 2.1zM101.6 55c1.3 0 4.9 3.5 12.3 12 2.6 2.9 2.8 3.6 1.6 4.3-1.9 1-5 .5-5-.8 0-3.3-4.2-9.4-8.8-12.9-2.9-2.2-4.4-3.6-3.4-3.3 1 .4 2.5.7 3.3.7zm56.2 8.6c1 1.9.8 2.4-1.4 4-1.5 1.1-3.5 3.7-4.6 5.9l-1.9 4 .6-3.5c.7-3.8.8-4.2 2-11.7.7-5.2.8-5.2 2.5-3 .9 1.2 2.2 3.2 2.8 4.3zm116.6 30.6c-5.1 3.8-6 4.2-2.5.9 1.8-1.7 3.8-3.1 4.4-3.1.5 0-.3 1-1.9 2.2zm-162.6.8c2.2 1.1 4.7 2 5.5 2 .7 0 2.3 1.8 3.6 4 3 5.4 7.3 8.2 14 9 3.1.4 5.1.8 4.5.9-2.5.3-6.4 4.8-6.4 7.4 0 3.1-.7 3.3-5.6 1.2-1.9-.8-3.5-1.4-3.7-1.3-1 .5-8.9-4.4-11.7-7.3-5.7-5.9-10-10.8-10-11.5 0-.3 1.2-1.9 2.8-3.4 1.5-1.5 2.7-2.8 2.8-2.9 0 0 1.9.8 4.2 1.9zM295 115.5c0 .5 1.1 3.4 2.5 6.2l2.4 5.3-2.5-1.6c-1.3-.9-3.9-2-5.7-2.3-3.3-.7-3.4-.8-2.9-8.3.2-2.5.3-2.6 3.2-1.5 1.7.6 3 1.6 3 2.2zm-49.6 15.4c-.4 1.7-.9 3-1.1 2.7-.3-.2-.2-1.9.2-3.6.9-4.1 1.7-3.3.9.9zm-71.8 3.2c-1.7 2.5-2 1.9-1-1.9.5-1.5 1-2 1.6-1.4.7.7.5 1.8-.6 3.3zm45.8 7.4l2.8 2h-4.8c-7.3-.1-11.4-1.3-10.7-3.2.4-.9.7-2.8.9-4.2.1-1.4.2-3 .3-3.5.1-.5 2 .9 4.4 3 2.4 2.2 5.6 4.8 7.1 5.9zm23.7-3.8c-1.2 2-1.4 1.4-.5-1.2.4-.9.9-1.4 1.1-1.1.3.2 0 1.3-.6 2.3zm25.9 3.4c0 .5-.8.9-1.7 1-1 0-3.3.2-5.2.5-3.3.4-3.3.3-1.8-1.4 1.2-1.3 2.7-1.7 5.2-1.4 1.9.2 3.5.8 3.5 1.3zM236 168c0 .5-.4 1-1 1-.5 0-1-.5-1-1 0-.6.5-1 1-1 .6 0 1 .4 1 1zm73.9 9.6c.9 1.1 2.4 2.5 3.4 3 1.5.9 1.3 1.3-2.3 3.7l-4.1 2.6-.9-2.7c-.6-1.5-1.4-3.4-1.8-4.2-.5-.8-.5-2.8-.1-4.4.5-1.6.6-3.4.3-4-.6-1.1 2.5 2.2 5.5 6zm-107.2-1.3c-.2.6-1 1.1-1.9 1.3-.8.1-2.6.5-3.9.8-2.3.7-2.3.6.4-1.8 2.6-2.4 6.2-2.6 5.4-.3zm60.7 5.1c2.1 4 1.6 5.7-1.1 3.5-2.9-2.3-5.6-3.6-9.2-4.4-4-.9-3.8-1.2 1.9-2 2.5-.4 4.7-.8 4.9-1.1.7-.6 1.6.4 3.5 4zm87.9 32.8c.4 1.3-2.1 6.9-4.6 10-1.2 1.5-1.8 1.6-6.4.2l-5.1-1.5 4.1-4c3.5-3.3 7.2-5.3 10.9-5.8.3-.1.8.5 1.1 1.1zm-86.7 27.1c.3.2-.9 1-2.6 1.7-1.6.7-3 1.6-3 2.1s-.6.9-1.3.9c-2.1 0-4 4.8-4.6 11.5l-.6 6-2.1-4.2c-1.1-2.3-1.7-4.7-1.3-5.5.5-1 1.6-7.2 1.8-11.1.1-.4 1.1-.7 2.4-.7 1.2 0 2.9-.5 3.7-1 1.4-.9 6.6-.7 7.6.3zm30.2 7.6c3.2 2.2 8.4 3.5 13.4 3.2 3.4-.2 3.9.2 5.7 3.6 1.1 2.1 3.2 5.1 4.6 6.8 9.8 11.2 10.4 12.5 1.9 3.9-9.2-9.3-12.7-11.4-20.4-12.1-5-.5-5.6-.8-7.1-3.9-1.9-3.9-1.7-4.1 1.9-1.5zm-78.9 17c5.4 6 3.4 4.9-4.3-2.4-6.7-6.5-7.2-7.1-5.8-8.8 1.5-1.6 1.7-1.4 4.3 3 1.5 2.7 4.2 6.3 5.8 8.2zm132.9 3.3c-.2.6-1 1.4-1.6 1.6-.7.2-1-.2-.6-1.2.7-1.8 2.8-2.2 2.2-.4zm-37.9 13.4c4 .8 4 2-.1 2.8-2.1.4-3.4.2-4-.6-1.8-2.9-1.1-3.2 4.1-2.2zm42.6 7.6v5.8h-3.2c-2.8 0-3.3-.4-4.7-4.7-1.9-5.6-1.1-6.9 4.1-6.8h3.8v5.7zM244 287.4c0 .9-4 1.3-4.6.5-.3-.5.6-.9 2-.9s2.6.2 2.6.4zm30 17c0 1.9 3.4 4.6 7.5 6l3.6 1.3-5.3 2.6c-7.1 3.5-10.1 8.2-10.2 15.9-.1 3.2-.2 5.8-.3 5.8-.2 0-1.2-2-2.3-4.4-2.7-5.7-6.8-9.4-12.1-11.1-2.4-.8-3.5-1.4-2.3-1.4 2.8-.1 13.3-6.5 16.7-10.2 1.5-1.7 2.7-3.9 2.7-5s.5-1.7 1-1.4c.6.3 1 1.2 1 1.9zm50.4 13.2c.3.9.6 2.5.6 3.7-.1 1.7-.4 1.5-1.5-1.2-1.8-3.9-1.8-4.1-.6-4.1.5 0 1.2.7 1.5 1.6zm48 8.5c3.2 3.7 3.2 7.6.1 7.1-1.1-.2-2.2-.8-2.5-1.3-.8-1.2-6.6-1.5-11.5-.6l-4 .8 3.3-1.7c4-2.1 9.3-7.4 8.5-8.7-1.3-2.1 3.7 1.5 6.1 4.4zM305 345c0 .5-.7 1-1.6 1-.8 0-1.2-.5-.9-1 .3-.6 1-1 1.6-1 .5 0 .9.4.9 1z"/></svg>