<?xml version="1.0" encoding="UTF-8" standalone="no"?>
<svg width="57px" height="50px" viewBox="0 0 57 50" version="1.1" xmlns="http://www.w3.org/2000/svg" xmlns:xlink="http://www.w3.org/1999/xlink" xmlns:sketch="http://www.bohemiancoding.com/sketch/ns">
    <!-- Generator: sketchtool 3.5.2 (25235) - http://www.bohemiancoding.com/sketch -->
    <title>icon-retro-camera</title>
    <desc>Created with sketchtool.</desc>
    <defs></defs>
    <g id="Page-1" stroke="none" stroke-width="1" fill="none" fill-rule="evenodd" sketch:type="MSPage">
        <g id="Home-LoggedInAsAdmin-ShowPhotoOptions" sketch:type="MSArtboardGroup" transform="translate(-763.000000, -46.000000)" fill="#FFFFFF">
            <g id="icon-retro-camera" sketch:type="MSLayerGroup" transform="translate(773.000000, 55.000000)">
                <path d="M25.5768333,5.25 L22.8841667,0 L12.1158333,0 L9.42316667,5.25 L0,5.25 L0,28 L35,28 L35,5.25 L25.5768333,5.25 L25.5768333,5.25 Z M17.5,24.5 C13.0394444,24.5 9.42316667,20.8837222 9.42316667,16.4227778 C9.42316667,11.9618333 13.0394444,8.34672222 17.5,8.34672222 C21.9605556,8.34672222 25.5768333,11.9622222 25.5768333,16.4227778 C25.5768333,20.8833333 21.9605556,24.5 17.5,24.5 L17.5,24.5 Z" id="Shape" sketch:type="MSShapeGroup"></path>
                <path d="M25.5768333,5.25 L22.8841667,0 L12.1158333,0 L9.42316667,5.25 L0,5.25 L0,28 L35,28 L35,5.25 L25.5768333,5.25 L25.5768333,5.25 Z M17.5,24.5 C13.0394444,24.5 9.42316667,20.8837222 9.42316667,16.4227778 C9.42316667,11.9618333 13.0394444,8.34672222 17.5,8.34672222 C21.9605556,8.34672222 25.5768333,11.9622222 25.5768333,16.4227778 C25.5768333,20.8833333 21.9605556,24.5 17.5,24.5 L17.5,24.5 Z" id="Shape" sketch:type="MSShapeGroup"></path>
            </g>
        </g>
    </g>
</svg>